<?xml version="1.0" encoding="UTF-8" standalone="no"?>
<!-- Generator: Adobe Illustrator 16.0.4, SVG Export Plug-In . SVG Version: 6.00 Build 0)  -->

<svg
   xmlns:dc="http://purl.org/dc/elements/1.1/"
   xmlns:cc="http://creativecommons.org/ns#"
   xmlns:rdf="http://www.w3.org/1999/02/22-rdf-syntax-ns#"
   xmlns:svg="http://www.w3.org/2000/svg"
   xmlns="http://www.w3.org/2000/svg"
   xmlns:sodipodi="http://sodipodi.sourceforge.net/DTD/sodipodi-0.dtd"
   xmlns:inkscape="http://www.inkscape.org/namespaces/inkscape"
   version="1.1"
   id="Capa_1"
   x="0px"
   y="0px"
   width="64px"
   height="64px"
   viewBox="0 0 64 64"
   enable-background="new 0 0 64 64"
   xml:space="preserve"
   inkscape:version="0.48.3.1 r9886"
   sodipodi:docname="Flaticon_11296.svg"><metadata
   id="metadata3011"><rdf:RDF><cc:Work
       rdf:about=""><dc:format>image/svg+xml</dc:format><dc:type
         rdf:resource="http://purl.org/dc/dcmitype/StillImage" /><dc:title></dc:title></cc:Work></rdf:RDF></metadata><defs
   id="defs3009" /><sodipodi:namedview
   pagecolor="#ffffff"
   bordercolor="#666666"
   borderopacity="1"
   objecttolerance="10"
   gridtolerance="10"
   guidetolerance="10"
   inkscape:pageopacity="0"
   inkscape:pageshadow="2"
   inkscape:window-width="1920"
   inkscape:window-height="1058"
   id="namedview3007"
   showgrid="false"
   inkscape:zoom="2"
   inkscape:cx="247.46927"
   inkscape:cy="40.185216"
   inkscape:window-x="-8"
   inkscape:window-y="-8"
   inkscape:window-maximized="1"
   inkscape:current-layer="Capa_1" />
<path
   d="m 39.91215,27.077 c 0.178,0.011 0.756,0.508 0.756,0.508 -0.311,0.134 -0.935,-0.519 -0.756,-0.508 z m -0.078,-0.102 0.046,0.028 c -0.016,-0.006 -0.031,-0.012 -0.045,-0.018 0,-0.004 -10e-4,-0.006 -10e-4,-0.01 z M 18.420244,4.7065625 c -0.01987,0.059589 -0.01997,0.017822 0.0111,0.061984 -0.0091,-0.047403 0.01474,-0.0096 -0.0111,-0.061984 z M 53.28415,29.627 l -1.556,0 0,-0.748 1.556,0 c 0.424,0 0.73,-0.084 0.842,-0.23 0.085,-0.112 0.048,-0.258 0.048,-0.258 l -0.019,-4.516 0.748,0 0,4.357 c 0.033,0.152 0.075,0.517 -0.171,0.853 -0.262,0.359 -0.751,0.542 -1.448,0.542 z m -49.1850004,10.612 0.211,-1.712 c 0.834,-6.688 0.867,-6.943 0.545,-18.729 -0.01,-0.413 0.312,-0.756 0.728,-0.768 0.392,-0.026 0.756,0.314 0.769,0.727 0.324,11.896 0.289,12.161 -0.557,18.952 l -0.212,1.715 c -0.217,1.643 -0.026,2.781 0.533,3.219 0.651,0.502 1.79,0.056 1.868,0.024 5.5010004,-1.692 12.3540004,1.804 12.6440004,1.949 0.367,0.188 0.511,0.641 0.321,1.008 -0.133,0.257 -0.395,0.401 -0.665,0.401 -0.115,0 -0.231,-0.024 -0.343,-0.084 -0.045,-0.021 -3.104,-1.576 -6.576,-2.096 l 0,11.645 3.107,0 c 0.633,0 1.146,0.512 1.146,1.145 0,0.631 -0.513,1.145 -1.146,1.145 l -8.8260004,0 c -0.633,0 -1.146,-0.514 -1.146,-1.145 0,-0.633 0.514,-1.145 1.146,-1.145 l 2.8630004,0 0,-11.771 c -0.6890004,0.047 -1.3690004,0.154 -2.0210004,0.354 -0.08,0.032 -1.935,0.794 -3.281,-0.24 -1.031,-0.792 -1.406,-2.341 -1.108,-4.594 z m 30.2840004,-5.257 -5.741,0 0,-5.125 20.59,0 c -0.012,-0.065 -0.017,-0.141 -0.021,-0.235 -0.002,-0.056 -0.005,-0.118 -0.009,-0.188 -0.026,-0.433 -0.102,-0.581 -0.526,-0.663 -0.107,-0.02 -0.242,-0.026 -0.378,-0.024 l 0,0.36 -5.526,0 c -0.161,0.03 -0.321,0.053 -0.47,0.053 -0.232,0 -0.432,-0.053 -0.55,-0.212 -0.062,-0.083 -0.062,-0.198 -0.061,-0.309 0,-0.107 10e-4,-0.217 -0.051,-0.282 -0.08,-0.097 -0.234,-0.162 -0.343,-0.172 0.115,0.222 0.187,0.458 0.187,0.708 l -6.259,0 c 0,-1.204 1.402,-2.18 3.129,-2.18 0.54,0 1.037,0.103 1.479,0.27 -0.103,1.031 0.867,0.931 1.242,0.855 0.044,0.055 0.082,0.113 0.12,0.171 0.017,-0.004 0.031,-0.014 0.05,-0.015 0.167,-0.008 0.408,0.093 0.535,0.247 0.095,0.116 0.093,0.266 0.093,0.398 -0.001,0.081 -0.001,0.165 0.024,0.198 0.066,0.089 0.196,0.118 0.345,0.126 l 0,-0.862 6.055,0 0,0.457 c 0.161,-0.001 0.311,0.013 0.413,0.033 0.537,0.103 0.645,0.35 0.674,0.83 0.004,0.072 0.006,0.136 0.009,0.192 0.004,0.109 0.008,0.185 0.023,0.243 l 11.371,0 0,5.125 -3.125,0 0,24.858 -23.278,0 c 2.89e-4,-13.119528 -10e-4,-13.121922 -10e-4,-24.857 z m 17.96,-21.998 -0.941,13.417 2.485,0.174 0.941,-13.416 z"
   id="path3005"
   inkscape:connector-curvature="0"
   style="fill:#101111"
   sodipodi:nodetypes="ccccccccccsccsccccccscccccccccccscccsssssscccscccccccccccsccccccscccccccccccccccccccccccccc" />
</svg>